<?xml version="1.0" encoding="UTF-8" standalone="no"?>
<!-- Generator: Adobe Illustrator 16.0.0, SVG Export Plug-In . SVG Version: 6.00 Build 0)  -->

<svg
   xmlns:dc="http://purl.org/dc/elements/1.1/"
   xmlns:cc="http://creativecommons.org/ns#"
   xmlns:rdf="http://www.w3.org/1999/02/22-rdf-syntax-ns#"
   xmlns:svg="http://www.w3.org/2000/svg"
   xmlns="http://www.w3.org/2000/svg"
   xmlns:sodipodi="http://sodipodi.sourceforge.net/DTD/sodipodi-0.dtd"
   xmlns:inkscape="http://www.inkscape.org/namespaces/inkscape"
   version="1.1"
   id="Capa_1"
   x="0px"
   y="0px"
   width="830"
   height="228"
   viewBox="0 0 799.77631 219.69756"
   xml:space="preserve"
   inkscape:version="0.91 r13725"
   sodipodi:docname="arrow-right.svg"><metadata
     id="metadata41"><rdf:RDF><cc:Work
         rdf:about=""><dc:format>image/svg+xml</dc:format><dc:type
           rdf:resource="http://purl.org/dc/dcmitype/StillImage" /><dc:title></dc:title></cc:Work></rdf:RDF></metadata><defs
     id="defs39" /><sodipodi:namedview
     pagecolor="#ffffff"
     bordercolor="#666666"
     borderopacity="1"
     objecttolerance="10"
     gridtolerance="10"
     guidetolerance="10"
     inkscape:pageopacity="0"
     inkscape:pageshadow="2"
     inkscape:window-width="1366"
     inkscape:window-height="706"
     id="namedview37"
     showgrid="false"
     inkscape:zoom="0.4609375"
     inkscape:cx="285.12368"
     inkscape:cy="429.55932"
     inkscape:window-x="-8"
     inkscape:window-y="-8"
     inkscape:window-maximized="1"
     inkscape:current-layer="Capa_1" /><g
     id="g3"
     transform="matrix(0.99999998,0,0,1.0013174,306.42032,-137.15324)"><path
       d="M 490.498,239.278 380.866,139.349 c -3.046,-2.474 -6.376,-2.95 -9.993,-1.427 -3.613,1.525 -5.427,4.283 -5.427,8.282 l 0,63.954 -662.73033,0 c -2.666,0 -4.856,0.855 -6.567,2.568 -1.71,1.712 -2.569,3.902 -2.569,6.566 l 0,54.816 c 0,2.663 0.855,4.853 2.568,6.563 1.715,1.712 3.905,2.567 6.567,2.567 l 662.73333,0 0,63.953 c 0,3.812 1.817,6.57 5.428,8.278 3.62,1.529 6.95,0.951 9.996,-1.708 L 490.504,252.684 c 1.903,-1.902 2.852,-4.182 2.852,-6.849 0,-2.468 -0.955,-4.654 -2.858,-6.557 z"
       id="path5"
       inkscape:connector-curvature="0"
       style="fill:#949494"
       sodipodi:nodetypes="cccscsssssscscccsc" /></g><g
     id="g7"
     transform="translate(0,-273.65843)" /><g
     id="g9"
     transform="translate(0,-273.65843)" /><g
     id="g11"
     transform="translate(0,-273.65843)" /><g
     id="g13"
     transform="translate(0,-273.65843)" /><g
     id="g15"
     transform="translate(0,-273.65843)" /><g
     id="g17"
     transform="translate(0,-273.65843)" /><g
     id="g19"
     transform="translate(0,-273.65843)" /><g
     id="g21"
     transform="translate(0,-273.65843)" /><g
     id="g23"
     transform="translate(0,-273.65843)" /><g
     id="g25"
     transform="translate(0,-273.65843)" /><g
     id="g27"
     transform="translate(0,-273.65843)" /><g
     id="g29"
     transform="translate(0,-273.65843)" /><g
     id="g31"
     transform="translate(0,-273.65843)" /><g
     id="g33"
     transform="translate(0,-273.65843)" /><g
     id="g35"
     transform="translate(0,-273.65843)" /></svg>